<?xml version="1.0" encoding="utf-8"?>
<!-- Generator: Adobe Illustrator 19.2.1, SVG Export Plug-In . SVG Version: 6.00 Build 0)  -->
<svg version="1.1" id="Layer_1" xmlns="http://www.w3.org/2000/svg" xmlns:xlink="http://www.w3.org/1999/xlink" x="0px" y="0px"
	 viewBox="0 0 64 64" style="enable-background:new 0 0 64 64;" xml:space="preserve">
<style type="text/css">
	.st0{fill:#40B38C;}
</style>
<g>
	<g>
		<path class="st0" d="M13,4C12.6,2.8,11.5,2,10.3,2H0v4h7.4C8.6,6,9.7,6.8,10.1,8l9.4,28.8h-0.1l-2.1,2.1
			c-3.9,3.9-1.1,10.6,4.4,10.6h27.7c1.1,0,2-0.9,2-2v0c0-1.1-0.9-2-2-2h-27c-2.2,0-3.3-2.7-1.8-4.3l2.5-2.5l30.2,0l1.4-4H23.1L13,4z
			"/>
		<path class="st0" d="M55.3,25.4h-32l1.3,4h30.7c0.8,0,1.6-0.5,1.9-1.3l0,0C57.6,26.8,56.6,25.4,55.3,25.4z"/>
		<path class="st0" d="M58.6,16.1H20.2l1.3,4h37.1c0.8,0,1.6-0.5,1.9-1.3l0,0C61,17.4,60,16.1,58.6,16.1z"/>
		<path class="st0" d="M62,6.7H17.2l1.3,4H62c0.8,0,1.6-0.5,1.9-1.3l0,0C64.3,8.1,63.4,6.7,62,6.7z"/>
	</g>
	<circle class="st0" cx="24.4" cy="56.5" r="5.4"/>
	<circle class="st0" cx="45.3" cy="56.5" r="5.4"/>
</g>
</svg>
