<?xml version="1.0" encoding="utf-8"?>
<!-- Generator: Adobe Illustrator 19.2.1, SVG Export Plug-In . SVG Version: 6.00 Build 0)  -->
<svg version="1.1" id="Layer_1" xmlns="http://www.w3.org/2000/svg" xmlns:xlink="http://www.w3.org/1999/xlink" x="0px" y="0px"
	 viewBox="0 0 18 14" style="enable-background:new 0 0 18 14;" xml:space="preserve">
<style type="text/css">
	.st0{fill:#1D1D1B;}
</style>
<g>
	<g>
		<path class="st0" d="M17,2H1C0.4,2,0,1.6,0,1s0.4-1,1-1h16c0.6,0,1,0.4,1,1S17.6,2,17,2z"/>
	</g>
	<g>
		<path class="st0" d="M17,14H1c-0.6,0-1-0.4-1-1s0.4-1,1-1h16c0.6,0,1,0.4,1,1S17.6,14,17,14z"/>
	</g>
	<g>
		<path class="st0" d="M14.6,8H1C0.4,8,0,7.6,0,7s0.4-1,1-1h13.6c0.6,0,1,0.4,1,1S15.1,8,14.6,8z"/>
	</g>
</g>
</svg>
